<svg width="328" height="188" viewBox="0 0 328 188" fill="none" xmlns="http://www.w3.org/2000/svg">
<g filter="url(#filter0_d_1_16)">
<rect x="4" width="320" height="180" fill="#07989D"/>
</g>
<path d="M36.1676 26.4545C36.1676 27.8821 35.897 29.0966 35.3558 30.098C34.8189 31.0994 34.0859 31.8643 33.157 32.3928C32.2322 32.9169 31.1925 33.179 30.0376 33.179C28.8743 33.179 27.8303 32.9148 26.9055 32.3864C25.9808 31.858 25.25 31.093 24.7131 30.0916C24.1761 29.0902 23.9077 27.8778 23.9077 26.4545C23.9077 25.027 24.1761 23.8125 24.7131 22.8111C25.25 21.8097 25.9808 21.0469 26.9055 20.5227C27.8303 19.9943 28.8743 19.7301 30.0376 19.7301C31.1925 19.7301 32.2322 19.9943 33.157 20.5227C34.0859 21.0469 34.8189 21.8097 35.3558 22.8111C35.897 23.8125 36.1676 25.027 36.1676 26.4545ZM33.3615 26.4545C33.3615 25.5298 33.223 24.75 32.946 24.1151C32.6733 23.4801 32.2876 22.9986 31.7891 22.6705C31.2905 22.3423 30.7067 22.1783 30.0376 22.1783C29.3686 22.1783 28.7848 22.3423 28.2862 22.6705C27.7876 22.9986 27.3999 23.4801 27.1229 24.1151C26.8501 24.75 26.7138 25.5298 26.7138 26.4545C26.7138 27.3793 26.8501 28.1591 27.1229 28.794C27.3999 29.429 27.7876 29.9105 28.2862 30.2386C28.7848 30.5668 29.3686 30.7308 30.0376 30.7308C30.7067 30.7308 31.2905 30.5668 31.7891 30.2386C32.2876 29.9105 32.6733 29.429 32.946 28.794C33.223 28.1591 33.3615 27.3793 33.3615 26.4545ZM38.1667 36.6818V23.1818H40.8514V24.831H40.9728C41.0922 24.5668 41.2647 24.2983 41.4906 24.0256C41.7207 23.7486 42.019 23.5185 42.3855 23.3352C42.7562 23.1477 43.2164 23.054 43.7662 23.054C44.4821 23.054 45.1426 23.2415 45.7477 23.6165C46.3528 23.9872 46.8365 24.5476 47.1987 25.2976C47.5609 26.0433 47.742 26.9787 47.742 28.1037C47.742 29.1989 47.5652 30.1236 47.2115 30.8778C46.862 31.6278 46.3848 32.1967 45.7797 32.5845C45.1788 32.968 44.5055 33.1598 43.7598 33.1598C43.2314 33.1598 42.7818 33.0724 42.411 32.8977C42.0446 32.723 41.7441 32.5036 41.5098 32.2393C41.2754 31.9709 41.0964 31.7003 40.9728 31.4276H40.8897V36.6818H38.1667ZM40.8322 28.0909C40.8322 28.6747 40.9132 29.1839 41.0751 29.6186C41.237 30.0533 41.4714 30.392 41.7782 30.6349C42.085 30.8736 42.4579 30.9929 42.8968 30.9929C43.34 30.9929 43.715 30.8714 44.0218 30.6286C44.3287 30.3814 44.5609 30.0405 44.7186 29.6058C44.8805 29.1669 44.9615 28.6619 44.9615 28.0909C44.9615 27.5241 44.8826 27.0256 44.725 26.5952C44.5673 26.1648 44.335 25.8281 44.0282 25.5852C43.7214 25.3423 43.3443 25.2209 42.8968 25.2209C42.4537 25.2209 42.0787 25.3381 41.7718 25.5724C41.4693 25.8068 41.237 26.1392 41.0751 26.5696C40.9132 27 40.8322 27.5071 40.8322 28.0909ZM54.0318 33.1918C53.0218 33.1918 52.1525 32.9872 51.4238 32.5781C50.6994 32.1648 50.1412 31.581 49.7491 30.8267C49.3571 30.0682 49.161 29.1712 49.161 28.1357C49.161 27.1257 49.3571 26.2393 49.7491 25.4766C50.1412 24.7138 50.693 24.1193 51.4047 23.6932C52.1206 23.267 52.96 23.054 53.9231 23.054C54.5708 23.054 55.1738 23.1584 55.7321 23.3672C56.2946 23.5717 56.7846 23.8807 57.2022 24.294C57.6241 24.7074 57.9522 25.2273 58.1866 25.8537C58.421 26.4759 58.5382 27.2045 58.5382 28.0398V28.7876H50.2477V27.1001H55.975C55.975 26.7081 55.8897 26.3608 55.7193 26.0582C55.5488 25.7557 55.3123 25.5192 55.0098 25.3487C54.7115 25.174 54.3642 25.0866 53.9679 25.0866C53.5545 25.0866 53.188 25.1825 52.8684 25.3743C52.5531 25.5618 52.3059 25.8153 52.127 26.1349C51.948 26.4503 51.8564 26.8018 51.8521 27.1896V28.794C51.8521 29.2798 51.9416 29.6996 52.1206 30.0533C52.3038 30.407 52.5616 30.6797 52.894 30.8714C53.2264 31.0632 53.6206 31.1591 54.0765 31.1591C54.3791 31.1591 54.6561 31.1165 54.9075 31.0312C55.1589 30.946 55.3741 30.8182 55.5531 30.6477C55.7321 30.4773 55.8684 30.2685 55.9622 30.0213L58.4806 30.1875C58.3528 30.7926 58.0907 31.321 57.6944 31.7727C57.3024 32.2202 56.7953 32.5696 56.1731 32.821C55.5552 33.0682 54.8414 33.1918 54.0318 33.1918ZM63.0382 27.3239V33H60.3152V23.1818H62.9103V24.9141H63.0254C63.2427 24.343 63.6071 23.8913 64.1184 23.5589C64.6298 23.2223 65.2498 23.054 65.9785 23.054C66.6603 23.054 67.2548 23.2031 67.7619 23.5014C68.269 23.7997 68.6632 24.2259 68.9444 24.7798C69.2257 25.3295 69.3663 25.9858 69.3663 26.7486V33H66.6433V27.2344C66.6475 26.6335 66.4941 26.1648 66.1831 25.8281C65.872 25.4872 65.4437 25.3168 64.8983 25.3168C64.5318 25.3168 64.2079 25.3956 63.9267 25.5533C63.6497 25.7109 63.4324 25.9411 63.2747 26.2436C63.1213 26.5419 63.0424 26.902 63.0382 27.3239ZM71.5124 33V23.1818H74.2354V33H71.5124ZM72.8803 21.9162C72.4755 21.9162 72.1282 21.782 71.8384 21.5135C71.5529 21.2408 71.4102 20.9148 71.4102 20.5355C71.4102 20.1605 71.5529 19.8388 71.8384 19.5703C72.1282 19.2976 72.4755 19.1612 72.8803 19.1612C73.2852 19.1612 73.6303 19.2976 73.9158 19.5703C74.2056 19.8388 74.3505 20.1605 74.3505 20.5355C74.3505 20.9148 74.2056 21.2408 73.9158 21.5135C73.6303 21.782 73.2852 21.9162 72.8803 21.9162ZM79.1397 27.3239V33H76.4167V23.1818H79.0119V24.9141H79.127C79.3443 24.343 79.7086 23.8913 80.22 23.5589C80.7314 23.2223 81.3514 23.054 82.0801 23.054C82.7619 23.054 83.3564 23.2031 83.8635 23.5014C84.3706 23.7997 84.7647 24.2259 85.046 24.7798C85.3272 25.3295 85.4679 25.9858 85.4679 26.7486V33H82.7449V27.2344C82.7491 26.6335 82.5957 26.1648 82.2846 25.8281C81.9735 25.4872 81.5453 25.3168 80.9998 25.3168C80.6333 25.3168 80.3095 25.3956 80.0282 25.5533C79.7512 25.7109 79.5339 25.9411 79.3762 26.2436C79.2228 26.5419 79.144 26.902 79.1397 27.3239ZM92.0373 36.8864C91.1552 36.8864 90.3988 36.7649 89.7681 36.522C89.1417 36.2834 88.6431 35.9574 88.2724 35.544C87.9016 35.1307 87.6609 34.6662 87.5501 34.1506L90.0685 33.8118C90.1452 34.0078 90.2667 34.1911 90.4329 34.3615C90.5991 34.532 90.8185 34.6683 91.0913 34.7706C91.3683 34.8771 91.7049 34.9304 92.1012 34.9304C92.6935 34.9304 93.1815 34.7855 93.565 34.4957C93.9528 34.2102 94.1467 33.7308 94.1467 33.0575V31.2614H94.0316C93.9123 31.5341 93.7333 31.7919 93.4947 32.0348C93.256 32.2777 92.9492 32.4759 92.5742 32.6293C92.1992 32.7827 91.7518 32.8594 91.2319 32.8594C90.4947 32.8594 89.8235 32.6889 89.2184 32.348C88.6175 32.0028 88.1381 31.4766 87.7802 30.7692C87.4265 30.0575 87.2496 29.1584 87.2496 28.0717C87.2496 26.9595 87.4308 26.0305 87.793 25.2848C88.1552 24.5391 88.6367 23.9808 89.2376 23.6101C89.8427 23.2393 90.5053 23.054 91.2255 23.054C91.7752 23.054 92.2354 23.1477 92.6062 23.3352C92.9769 23.5185 93.2752 23.7486 93.5011 24.0256C93.7312 24.2983 93.908 24.5668 94.0316 24.831H94.1339V23.1818H96.8377V33.0959C96.8377 33.9311 96.6332 34.63 96.2241 35.1925C95.815 35.755 95.2482 36.1768 94.5238 36.4581C93.8036 36.7436 92.9748 36.8864 92.0373 36.8864ZM92.0948 30.8139C92.5337 30.8139 92.9045 30.7053 93.207 30.4879C93.5138 30.2663 93.7482 29.951 93.9102 29.5419C94.0763 29.1286 94.1594 28.6342 94.1594 28.0589C94.1594 27.4837 94.0785 26.9851 93.9165 26.5632C93.7546 26.1371 93.5202 25.8068 93.2134 25.5724C92.9066 25.3381 92.5337 25.2209 92.0948 25.2209C91.6474 25.2209 91.2702 25.3423 90.9634 25.5852C90.6566 25.8239 90.4244 26.1562 90.2667 26.5824C90.109 27.0085 90.0302 27.5007 90.0302 28.0589C90.0302 28.6257 90.109 29.1158 90.2667 29.5291C90.4286 29.9382 90.6609 30.2557 90.9634 30.4815C91.2702 30.7031 91.6474 30.8139 92.0948 30.8139ZM103.222 33V19.9091H105.99V25.3104H111.608V19.9091H114.369V33H111.608V27.5923H105.99V33H103.222ZM121.036 33.1918C120.044 33.1918 119.185 32.9808 118.46 32.5589C117.74 32.1328 117.184 31.5405 116.792 30.782C116.4 30.0192 116.204 29.1349 116.204 28.1293C116.204 27.1151 116.4 26.2287 116.792 25.4702C117.184 24.7074 117.74 24.1151 118.46 23.6932C119.185 23.267 120.044 23.054 121.036 23.054C122.029 23.054 122.886 23.267 123.606 23.6932C124.33 24.1151 124.889 24.7074 125.281 25.4702C125.673 26.2287 125.869 27.1151 125.869 28.1293C125.869 29.1349 125.673 30.0192 125.281 30.782C124.889 31.5405 124.33 32.1328 123.606 32.5589C122.886 32.9808 122.029 33.1918 121.036 33.1918ZM121.049 31.0824C121.501 31.0824 121.878 30.9545 122.181 30.6989C122.483 30.4389 122.711 30.0852 122.865 29.6378C123.022 29.1903 123.101 28.6811 123.101 28.1101C123.101 27.5391 123.022 27.0298 122.865 26.5824C122.711 26.1349 122.483 25.7812 122.181 25.5213C121.878 25.2614 121.501 25.1314 121.049 25.1314C120.593 25.1314 120.21 25.2614 119.899 25.5213C119.592 25.7812 119.36 26.1349 119.202 26.5824C119.048 27.0298 118.972 27.5391 118.972 28.1101C118.972 28.6811 119.048 29.1903 119.202 29.6378C119.36 30.0852 119.592 30.4389 119.899 30.6989C120.21 30.9545 120.593 31.0824 121.049 31.0824ZM133.936 28.8196V23.1818H136.659V33H134.044V31.2166H133.942C133.72 31.7919 133.352 32.2543 132.836 32.6037C132.325 32.9531 131.7 33.1278 130.963 33.1278C130.307 33.1278 129.73 32.9787 129.231 32.6804C128.732 32.3821 128.343 31.9581 128.061 31.4084C127.784 30.8587 127.644 30.2003 127.639 29.4332V23.1818H130.362V28.9474C130.367 29.527 130.522 29.9851 130.829 30.3217C131.136 30.6584 131.547 30.8267 132.063 30.8267C132.391 30.8267 132.698 30.7521 132.983 30.603C133.269 30.4496 133.499 30.2237 133.673 29.9254C133.852 29.6271 133.94 29.2585 133.936 28.8196ZM138.837 33V23.1818H141.477V24.8949H141.579C141.758 24.2855 142.058 23.8253 142.48 23.5142C142.902 23.1989 143.388 23.0412 143.938 23.0412C144.074 23.0412 144.221 23.0497 144.379 23.0668C144.536 23.0838 144.675 23.1072 144.794 23.1371V25.5533C144.666 25.5149 144.489 25.4808 144.263 25.451C144.038 25.4212 143.831 25.4062 143.643 25.4062C143.243 25.4062 142.885 25.4936 142.57 25.6683C142.259 25.8388 142.011 26.0774 141.828 26.3842C141.649 26.6911 141.56 27.0447 141.56 27.4453V33H138.837ZM154.371 25.9815L151.878 26.1349C151.835 25.9219 151.744 25.7301 151.603 25.5597C151.463 25.3849 151.277 25.2464 151.047 25.1442C150.821 25.0376 150.551 24.9844 150.235 24.9844C149.813 24.9844 149.458 25.0739 149.168 25.2528C148.878 25.4276 148.733 25.6619 148.733 25.956C148.733 26.1903 148.827 26.3885 149.014 26.5504C149.202 26.7124 149.524 26.8423 149.98 26.9403L151.757 27.2983C152.711 27.4943 153.423 27.8097 153.892 28.2443C154.36 28.679 154.595 29.25 154.595 29.9574C154.595 30.6009 154.405 31.1655 154.026 31.6513C153.651 32.1371 153.135 32.5163 152.479 32.7891C151.827 33.0575 151.075 33.1918 150.222 33.1918C148.923 33.1918 147.887 32.9212 147.116 32.38C146.349 31.8345 145.899 31.093 145.767 30.1555L148.445 30.0149C148.526 30.4112 148.722 30.7138 149.034 30.9226C149.345 31.1271 149.743 31.2294 150.229 31.2294C150.706 31.2294 151.09 31.1378 151.379 30.9545C151.673 30.767 151.823 30.5263 151.827 30.2322C151.823 29.9851 151.718 29.7827 151.514 29.625C151.309 29.4631 150.994 29.3395 150.568 29.2543L148.867 28.9155C147.909 28.7237 147.195 28.3913 146.726 27.9183C146.262 27.4453 146.029 26.8423 146.029 26.1094C146.029 25.4787 146.2 24.9354 146.541 24.4794C146.886 24.0234 147.369 23.6719 147.992 23.4247C148.618 23.1776 149.351 23.054 150.191 23.054C151.431 23.054 152.406 23.3161 153.118 23.8402C153.834 24.3643 154.252 25.0781 154.371 25.9815Z" fill="white"/>
<path d="M24.2784 50.3636H26.4091L30.1136 59.4091H30.25L33.9545 50.3636H36.0852V62H34.4148V53.5795H34.3068L30.875 61.983H29.4886L26.0568 53.5739H25.9489V62H24.2784V50.3636ZM42.1776 62.1761C41.3594 62.1761 40.6454 61.9886 40.0355 61.6136C39.4257 61.2386 38.9522 60.714 38.6151 60.0398C38.2779 59.3655 38.1094 58.5777 38.1094 57.6761C38.1094 56.7708 38.2779 55.9792 38.6151 55.3011C38.9522 54.6231 39.4257 54.0966 40.0355 53.7216C40.6454 53.3466 41.3594 53.1591 42.1776 53.1591C42.9957 53.1591 43.7098 53.3466 44.3196 53.7216C44.9295 54.0966 45.4029 54.6231 45.7401 55.3011C46.0772 55.9792 46.2457 56.7708 46.2457 57.6761C46.2457 58.5777 46.0772 59.3655 45.7401 60.0398C45.4029 60.714 44.9295 61.2386 44.3196 61.6136C43.7098 61.9886 42.9957 62.1761 42.1776 62.1761ZM42.1832 60.75C42.7135 60.75 43.1529 60.6098 43.5014 60.3295C43.8499 60.0492 44.1075 59.6761 44.2741 59.2102C44.4446 58.7443 44.5298 58.2311 44.5298 57.6705C44.5298 57.1136 44.4446 56.6023 44.2741 56.1364C44.1075 55.6667 43.8499 55.2898 43.5014 55.0057C43.1529 54.7216 42.7135 54.5795 42.1832 54.5795C41.6491 54.5795 41.206 54.7216 40.8537 55.0057C40.5052 55.2898 40.2457 55.6667 40.0753 56.1364C39.9086 56.6023 39.8253 57.1136 39.8253 57.6705C39.8253 58.2311 39.9086 58.7443 40.0753 59.2102C40.2457 59.6761 40.5052 60.0492 40.8537 60.3295C41.206 60.6098 41.6491 60.75 42.1832 60.75ZM49.8409 56.8182V62H48.142V53.2727H49.7727V54.6932H49.8807C50.0814 54.2311 50.3958 53.8598 50.8239 53.5795C51.2557 53.2992 51.7992 53.1591 52.4545 53.1591C53.0492 53.1591 53.5701 53.2841 54.017 53.5341C54.464 53.7803 54.8106 54.1477 55.0568 54.6364C55.303 55.125 55.4261 55.7292 55.4261 56.4489V62H53.7273V56.6534C53.7273 56.0208 53.5625 55.5265 53.233 55.1705C52.9034 54.8106 52.4508 54.6307 51.875 54.6307C51.4811 54.6307 51.1307 54.7159 50.8239 54.8864C50.5208 55.0568 50.2803 55.3068 50.1023 55.6364C49.928 55.9621 49.8409 56.3561 49.8409 56.8182ZM60.9716 62.1705C60.267 62.1705 59.6383 61.9905 59.0852 61.6307C58.536 61.267 58.1042 60.75 57.7898 60.0795C57.4792 59.4053 57.3239 58.5966 57.3239 57.6534C57.3239 56.7102 57.4811 55.9034 57.7955 55.233C58.1136 54.5625 58.5492 54.0492 59.1023 53.6932C59.6553 53.3371 60.2822 53.1591 60.983 53.1591C61.5246 53.1591 61.9602 53.25 62.2898 53.4318C62.6231 53.6098 62.8807 53.8182 63.0625 54.0568C63.2481 54.2955 63.392 54.5057 63.4943 54.6875H63.5966V50.3636H65.2955V62H63.6364V60.642H63.4943C63.392 60.8277 63.2443 61.0398 63.0511 61.2784C62.8617 61.517 62.6004 61.7254 62.267 61.9034C61.9337 62.0814 61.5019 62.1705 60.9716 62.1705ZM61.3466 60.7216C61.8352 60.7216 62.2481 60.5928 62.5852 60.3352C62.9261 60.0739 63.1837 59.7121 63.358 59.25C63.536 58.7879 63.625 58.25 63.625 57.6364C63.625 57.0303 63.5379 56.5 63.3636 56.0455C63.1894 55.5909 62.9337 55.2367 62.5966 54.983C62.2595 54.7292 61.8428 54.6023 61.3466 54.6023C60.8352 54.6023 60.4091 54.7348 60.0682 55C59.7273 55.2652 59.4697 55.6269 59.2955 56.0852C59.125 56.5436 59.0398 57.0606 59.0398 57.6364C59.0398 58.2197 59.1269 58.7443 59.3011 59.2102C59.4754 59.6761 59.733 60.0455 60.0739 60.3182C60.4186 60.5871 60.8428 60.7216 61.3466 60.7216ZM70.2599 62.1932C69.7069 62.1932 69.2069 62.0909 68.7599 61.8864C68.313 61.678 67.9588 61.3769 67.6974 60.983C67.4399 60.589 67.3111 60.1061 67.3111 59.5341C67.3111 59.0417 67.4058 58.6364 67.5952 58.3182C67.7846 58 68.0402 57.7481 68.3622 57.5625C68.6842 57.3769 69.044 57.2367 69.4418 57.142C69.8395 57.0473 70.2448 56.9754 70.6577 56.9261C71.1804 56.8655 71.6046 56.8163 71.9304 56.7784C72.2562 56.7367 72.4929 56.6705 72.6406 56.5795C72.7884 56.4886 72.8622 56.3409 72.8622 56.1364V56.0966C72.8622 55.6004 72.7221 55.2159 72.4418 54.9432C72.1652 54.6705 71.7524 54.5341 71.2031 54.5341C70.6312 54.5341 70.1804 54.661 69.8509 54.9148C69.5251 55.1648 69.2997 55.4432 69.1747 55.75L67.5781 55.3864C67.7675 54.8561 68.044 54.428 68.4077 54.1023C68.7751 53.7727 69.1974 53.5341 69.6747 53.3864C70.152 53.2348 70.6539 53.1591 71.1804 53.1591C71.5289 53.1591 71.8982 53.2008 72.2884 53.2841C72.6823 53.3636 73.0497 53.5114 73.3906 53.7273C73.7353 53.9432 74.0175 54.2519 74.2372 54.6534C74.4569 55.0511 74.5668 55.5682 74.5668 56.2045V62H72.9077V60.8068H72.8395C72.7296 61.0265 72.5649 61.2424 72.3452 61.4545C72.1255 61.6667 71.8433 61.8428 71.4986 61.983C71.1539 62.1231 70.741 62.1932 70.2599 62.1932ZM70.6293 60.8295C71.099 60.8295 71.5005 60.7367 71.8338 60.5511C72.1709 60.3655 72.4266 60.1231 72.6009 59.8239C72.7789 59.5208 72.8679 59.197 72.8679 58.8523V57.7273C72.8073 57.7879 72.6899 57.8447 72.5156 57.8977C72.3452 57.947 72.1501 57.9905 71.9304 58.0284C71.7107 58.0625 71.4967 58.0947 71.2884 58.125C71.08 58.1515 70.9058 58.1742 70.7656 58.1932C70.4361 58.2348 70.1349 58.3049 69.8622 58.4034C69.5933 58.5019 69.3774 58.6439 69.2145 58.8295C69.0554 59.0114 68.9759 59.2538 68.9759 59.5568C68.9759 59.9773 69.1312 60.2955 69.4418 60.5114C69.7524 60.7235 70.1482 60.8295 70.6293 60.8295ZM77.5909 65.2727C77.3371 65.2727 77.1061 65.2519 76.8977 65.2102C76.6894 65.1723 76.5341 65.1307 76.4318 65.0852L76.8409 63.6932C77.1515 63.7765 77.428 63.8125 77.6705 63.8011C77.9129 63.7898 78.1269 63.6989 78.3125 63.5284C78.5019 63.358 78.6686 63.0795 78.8125 62.6932L79.0227 62.1136L75.8295 53.2727H77.6477L79.858 60.0455H79.9489L82.1591 53.2727H83.983L80.3864 63.1648C80.2197 63.6193 80.0076 64.0038 79.75 64.3182C79.4924 64.6364 79.1856 64.875 78.8295 65.0341C78.4735 65.1932 78.0606 65.2727 77.5909 65.2727ZM90.7216 56.3466V57.8182H85.5625V56.3466H90.7216ZM99.4688 53.4205C99.4081 52.8826 99.1581 52.4659 98.7188 52.1705C98.2794 51.8712 97.7263 51.7216 97.0597 51.7216C96.5824 51.7216 96.1695 51.7973 95.821 51.9489C95.4725 52.0966 95.2017 52.3011 95.0085 52.5625C94.8191 52.8201 94.7244 53.1136 94.7244 53.4432C94.7244 53.7197 94.7888 53.9583 94.9176 54.1591C95.0502 54.3598 95.2225 54.5284 95.4347 54.6648C95.6506 54.7973 95.8816 54.9091 96.1278 55C96.3741 55.0871 96.6108 55.1591 96.8381 55.2159L97.9744 55.5114C98.3456 55.6023 98.7263 55.7254 99.1165 55.8807C99.5066 56.036 99.8684 56.2405 100.202 56.4943C100.535 56.7481 100.804 57.0625 101.009 57.4375C101.217 57.8125 101.321 58.2614 101.321 58.7841C101.321 59.4432 101.151 60.0284 100.81 60.5398C100.473 61.0511 99.982 61.4545 99.3381 61.75C98.6979 62.0455 97.9233 62.1932 97.0142 62.1932C96.143 62.1932 95.3892 62.0549 94.7528 61.7784C94.1165 61.5019 93.6184 61.1098 93.2585 60.6023C92.8987 60.0909 92.6998 59.4848 92.6619 58.7841H94.4233C94.4574 59.2045 94.5938 59.5549 94.8324 59.8352C95.0748 60.1117 95.3835 60.3182 95.7585 60.4545C96.1373 60.5871 96.5521 60.6534 97.0028 60.6534C97.4991 60.6534 97.9403 60.5758 98.3267 60.4205C98.7169 60.2614 99.0237 60.0417 99.2472 59.7614C99.4706 59.4773 99.5824 59.1458 99.5824 58.767C99.5824 58.4223 99.4839 58.1402 99.2869 57.9205C99.0938 57.7008 98.8305 57.5189 98.4972 57.375C98.1676 57.2311 97.7945 57.1042 97.3778 56.9943L96.0028 56.6193C95.071 56.3655 94.3324 55.9924 93.7869 55.5C93.2453 55.0076 92.9744 54.3561 92.9744 53.5455C92.9744 52.875 93.1563 52.2898 93.5199 51.7898C93.8835 51.2898 94.3759 50.9015 94.9972 50.625C95.6184 50.3447 96.3191 50.2045 97.0994 50.2045C97.8873 50.2045 98.5824 50.3428 99.1847 50.6193C99.7907 50.8958 100.268 51.2765 100.616 51.7614C100.965 52.2424 101.147 52.7955 101.162 53.4205H99.4688ZM105.822 62.1932C105.269 62.1932 104.769 62.0909 104.322 61.8864C103.875 61.678 103.521 61.3769 103.26 60.983C103.002 60.589 102.874 60.1061 102.874 59.5341C102.874 59.0417 102.968 58.6364 103.158 58.3182C103.347 58 103.603 57.7481 103.925 57.5625C104.247 57.3769 104.607 57.2367 105.004 57.142C105.402 57.0473 105.807 56.9754 106.22 56.9261C106.743 56.8655 107.167 56.8163 107.493 56.7784C107.819 56.7367 108.055 56.6705 108.203 56.5795C108.351 56.4886 108.425 56.3409 108.425 56.1364V56.0966C108.425 55.6004 108.285 55.2159 108.004 54.9432C107.728 54.6705 107.315 54.5341 106.766 54.5341C106.194 54.5341 105.743 54.661 105.413 54.9148C105.088 55.1648 104.862 55.4432 104.737 55.75L103.141 55.3864C103.33 54.8561 103.607 54.428 103.97 54.1023C104.338 53.7727 104.76 53.5341 105.237 53.3864C105.714 53.2348 106.216 53.1591 106.743 53.1591C107.091 53.1591 107.461 53.2008 107.851 53.2841C108.245 53.3636 108.612 53.5114 108.953 53.7273C109.298 53.9432 109.58 54.2519 109.8 54.6534C110.019 55.0511 110.129 55.5682 110.129 56.2045V62H108.47V60.8068H108.402C108.292 61.0265 108.127 61.2424 107.908 61.4545C107.688 61.6667 107.406 61.8428 107.061 61.983C106.716 62.1231 106.304 62.1932 105.822 62.1932ZM106.192 60.8295C106.661 60.8295 107.063 60.7367 107.396 60.5511C107.733 60.3655 107.989 60.1231 108.163 59.8239C108.341 59.5208 108.43 59.197 108.43 58.8523V57.7273C108.37 57.7879 108.252 57.8447 108.078 57.8977C107.908 57.947 107.713 57.9905 107.493 58.0284C107.273 58.0625 107.059 58.0947 106.851 58.125C106.643 58.1515 106.468 58.1742 106.328 58.1932C105.999 58.2348 105.697 58.3049 105.425 58.4034C105.156 58.5019 104.94 58.6439 104.777 58.8295C104.618 59.0114 104.538 59.2538 104.538 59.5568C104.538 59.9773 104.694 60.2955 105.004 60.5114C105.315 60.7235 105.711 60.8295 106.192 60.8295ZM116.466 53.2727V54.6364H111.699V53.2727H116.466ZM112.977 51.1818H114.676V59.4375C114.676 59.767 114.725 60.0152 114.824 60.1818C114.922 60.3447 115.049 60.4564 115.205 60.517C115.364 60.5739 115.536 60.6023 115.722 60.6023C115.858 60.6023 115.977 60.5928 116.08 60.5739C116.182 60.5549 116.261 60.5398 116.318 60.5284L116.625 61.9318C116.527 61.9697 116.386 62.0076 116.205 62.0455C116.023 62.0871 115.795 62.1098 115.523 62.1136C115.076 62.1212 114.659 62.0417 114.273 61.875C113.886 61.7083 113.574 61.4508 113.335 61.1023C113.097 60.7538 112.977 60.3163 112.977 59.7898V51.1818ZM123.874 58.3807V53.2727H125.578V62H123.908V60.4886H123.817C123.616 60.9545 123.294 61.3428 122.851 61.6534C122.411 61.9602 121.864 62.1136 121.209 62.1136C120.648 62.1136 120.152 61.9905 119.72 61.7443C119.292 61.4943 118.955 61.125 118.709 60.6364C118.466 60.1477 118.345 59.5436 118.345 58.8239V53.2727H120.044V58.6193C120.044 59.214 120.209 59.6875 120.538 60.0398C120.868 60.392 121.296 60.5682 121.822 60.5682C122.141 60.5682 122.457 60.4886 122.771 60.3295C123.089 60.1705 123.353 59.9299 123.561 59.608C123.773 59.286 123.877 58.8769 123.874 58.3807ZM127.861 62V53.2727H129.503V54.6591H129.594C129.753 54.1894 130.033 53.8201 130.435 53.5511C130.84 53.2784 131.298 53.142 131.81 53.142C131.916 53.142 132.041 53.1458 132.185 53.1534C132.332 53.161 132.448 53.1705 132.531 53.1818V54.8068C132.463 54.7879 132.342 54.767 132.168 54.7443C131.993 54.7178 131.819 54.7045 131.645 54.7045C131.243 54.7045 130.885 54.7898 130.571 54.9602C130.26 55.1269 130.014 55.3598 129.832 55.6591C129.651 55.9545 129.56 56.2917 129.56 56.6705V62H127.861ZM136.956 62.1705C136.251 62.1705 135.623 61.9905 135.07 61.6307C134.52 61.267 134.089 60.75 133.774 60.0795C133.464 59.4053 133.308 58.5966 133.308 57.6534C133.308 56.7102 133.465 55.9034 133.78 55.233C134.098 54.5625 134.534 54.0492 135.087 53.6932C135.64 53.3371 136.267 53.1591 136.967 53.1591C137.509 53.1591 137.945 53.25 138.274 53.4318C138.607 53.6098 138.865 53.8182 139.047 54.0568C139.232 54.2955 139.376 54.5057 139.479 54.6875H139.581V50.3636H141.28V62H139.621V60.642H139.479C139.376 60.8277 139.229 61.0398 139.036 61.2784C138.846 61.517 138.585 61.7254 138.251 61.9034C137.918 62.0814 137.486 62.1705 136.956 62.1705ZM137.331 60.7216C137.82 60.7216 138.232 60.5928 138.57 60.3352C138.911 60.0739 139.168 59.7121 139.342 59.25C139.52 58.7879 139.609 58.25 139.609 57.6364C139.609 57.0303 139.522 56.5 139.348 56.0455C139.174 55.5909 138.918 55.2367 138.581 54.983C138.244 54.7292 137.827 54.6023 137.331 54.6023C136.82 54.6023 136.393 54.7348 136.053 55C135.712 55.2652 135.454 55.6269 135.28 56.0852C135.109 56.5436 135.024 57.0606 135.024 57.6364C135.024 58.2197 135.111 58.7443 135.286 59.2102C135.46 59.6761 135.717 60.0455 136.058 60.3182C136.403 60.5871 136.827 60.7216 137.331 60.7216ZM146.244 62.1932C145.691 62.1932 145.191 62.0909 144.744 61.8864C144.297 61.678 143.943 61.3769 143.682 60.983C143.424 60.589 143.295 60.1061 143.295 59.5341C143.295 59.0417 143.39 58.6364 143.58 58.3182C143.769 58 144.025 57.7481 144.347 57.5625C144.669 57.3769 145.028 57.2367 145.426 57.142C145.824 57.0473 146.229 56.9754 146.642 56.9261C147.165 56.8655 147.589 56.8163 147.915 56.7784C148.241 56.7367 148.477 56.6705 148.625 56.5795C148.773 56.4886 148.847 56.3409 148.847 56.1364V56.0966C148.847 55.6004 148.706 55.2159 148.426 54.9432C148.15 54.6705 147.737 54.5341 147.188 54.5341C146.616 54.5341 146.165 54.661 145.835 54.9148C145.509 55.1648 145.284 55.4432 145.159 55.75L143.562 55.3864C143.752 54.8561 144.028 54.428 144.392 54.1023C144.759 53.7727 145.182 53.5341 145.659 53.3864C146.136 53.2348 146.638 53.1591 147.165 53.1591C147.513 53.1591 147.883 53.2008 148.273 53.2841C148.667 53.3636 149.034 53.5114 149.375 53.7273C149.72 53.9432 150.002 54.2519 150.222 54.6534C150.441 55.0511 150.551 55.5682 150.551 56.2045V62H148.892V60.8068H148.824C148.714 61.0265 148.549 61.2424 148.33 61.4545C148.11 61.6667 147.828 61.8428 147.483 61.983C147.138 62.1231 146.725 62.1932 146.244 62.1932ZM146.614 60.8295C147.083 60.8295 147.485 60.7367 147.818 60.5511C148.155 60.3655 148.411 60.1231 148.585 59.8239C148.763 59.5208 148.852 59.197 148.852 58.8523V57.7273C148.792 57.7879 148.674 57.8447 148.5 57.8977C148.33 57.947 148.134 57.9905 147.915 58.0284C147.695 58.0625 147.481 58.0947 147.273 58.125C147.064 58.1515 146.89 58.1742 146.75 58.1932C146.42 58.2348 146.119 58.3049 145.847 58.4034C145.578 58.5019 145.362 58.6439 145.199 58.8295C145.04 59.0114 144.96 59.2538 144.96 59.5568C144.96 59.9773 145.116 60.2955 145.426 60.5114C145.737 60.7235 146.133 60.8295 146.614 60.8295ZM153.575 65.2727C153.321 65.2727 153.09 65.2519 152.882 65.2102C152.674 65.1723 152.518 65.1307 152.416 65.0852L152.825 63.6932C153.136 63.7765 153.412 63.8125 153.655 63.8011C153.897 63.7898 154.111 63.6989 154.297 63.5284C154.486 63.358 154.653 63.0795 154.797 62.6932L155.007 62.1136L151.814 53.2727H153.632L155.842 60.0455H155.933L158.143 53.2727H159.967L156.371 63.1648C156.204 63.6193 155.992 64.0038 155.734 64.3182C155.477 64.6364 155.17 64.875 154.814 65.0341C154.458 65.1932 154.045 65.2727 153.575 65.2727Z" fill="white"/>
<path d="M198.705 51.875V50.3636H207.71V51.875H204.08V62H202.33V51.875H198.705ZM209.564 62V53.2727H211.263V62H209.564ZM210.422 51.9261C210.126 51.9261 209.873 51.8277 209.661 51.6307C209.452 51.4299 209.348 51.1913 209.348 50.9148C209.348 50.6345 209.452 50.3958 209.661 50.1989C209.873 49.9981 210.126 49.8977 210.422 49.8977C210.717 49.8977 210.969 49.9981 211.178 50.1989C211.39 50.3958 211.496 50.6345 211.496 50.9148C211.496 51.1913 211.39 51.4299 211.178 51.6307C210.969 51.8277 210.717 51.9261 210.422 51.9261ZM213.548 62V53.2727H215.179V54.6932H215.287C215.469 54.2121 215.766 53.8371 216.179 53.5682C216.592 53.2955 217.086 53.1591 217.662 53.1591C218.245 53.1591 218.734 53.2955 219.128 53.5682C219.526 53.8409 219.819 54.2159 220.009 54.6932H220.099C220.308 54.2273 220.639 53.8561 221.094 53.5795C221.548 53.2992 222.09 53.1591 222.719 53.1591C223.51 53.1591 224.156 53.4072 224.656 53.9034C225.16 54.3996 225.412 55.1477 225.412 56.1477V62H223.713V56.3068C223.713 55.7159 223.552 55.2879 223.23 55.0227C222.908 54.7576 222.524 54.625 222.077 54.625C221.524 54.625 221.094 54.7955 220.787 55.1364C220.48 55.4735 220.327 55.9072 220.327 56.4375V62H218.634V56.1989C218.634 55.7254 218.486 55.3447 218.19 55.0568C217.895 54.7689 217.51 54.625 217.037 54.625C216.715 54.625 216.418 54.7102 216.145 54.8807C215.876 55.0473 215.658 55.2803 215.491 55.5795C215.329 55.8788 215.247 56.2254 215.247 56.6193V62H213.548ZM227.689 62V53.2727H229.388V62H227.689ZM228.547 51.9261C228.251 51.9261 227.998 51.8277 227.786 51.6307C227.577 51.4299 227.473 51.1913 227.473 50.9148C227.473 50.6345 227.577 50.3958 227.786 50.1989C227.998 49.9981 228.251 49.8977 228.547 49.8977C228.842 49.8977 229.094 49.9981 229.303 50.1989C229.515 50.3958 229.621 50.6345 229.621 50.9148C229.621 51.1913 229.515 51.4299 229.303 51.6307C229.094 51.8277 228.842 51.9261 228.547 51.9261ZM233.372 56.8182V62H231.673V53.2727H233.304V54.6932H233.412C233.613 54.2311 233.927 53.8598 234.355 53.5795C234.787 53.2992 235.33 53.1591 235.986 53.1591C236.58 53.1591 237.101 53.2841 237.548 53.5341C237.995 53.7803 238.342 54.1477 238.588 54.6364C238.834 55.125 238.957 55.7292 238.957 56.4489V62H237.259V56.6534C237.259 56.0208 237.094 55.5265 236.764 55.1705C236.435 54.8106 235.982 54.6307 235.406 54.6307C235.012 54.6307 234.662 54.7159 234.355 54.8864C234.052 55.0568 233.812 55.3068 233.634 55.6364C233.459 55.9621 233.372 56.3561 233.372 56.8182ZM244.895 65.4545C244.202 65.4545 243.605 65.3636 243.105 65.1818C242.609 65 242.204 64.7595 241.889 64.4602C241.575 64.161 241.34 63.8333 241.185 63.4773L242.645 62.875C242.747 63.0417 242.884 63.2178 243.054 63.4034C243.228 63.5928 243.463 63.7538 243.759 63.8864C244.058 64.0189 244.442 64.0852 244.912 64.0852C245.556 64.0852 246.088 63.928 246.509 63.6136C246.929 63.303 247.139 62.8068 247.139 62.125V60.4091H247.031C246.929 60.5947 246.781 60.8011 246.588 61.0284C246.399 61.2557 246.137 61.4527 245.804 61.6193C245.471 61.786 245.037 61.8693 244.503 61.8693C243.813 61.8693 243.192 61.7083 242.639 61.3864C242.09 61.0606 241.654 60.5814 241.332 59.9489C241.014 59.3125 240.855 58.5303 240.855 57.6023C240.855 56.6742 241.012 55.8788 241.327 55.2159C241.645 54.553 242.08 54.0455 242.634 53.6932C243.187 53.3371 243.813 53.1591 244.514 53.1591C245.056 53.1591 245.493 53.25 245.827 53.4318C246.16 53.6098 246.42 53.8182 246.605 54.0568C246.795 54.2955 246.94 54.5057 247.043 54.6875H247.168V53.2727H248.832V62.1932C248.832 62.9432 248.658 63.5587 248.31 64.0398C247.961 64.5208 247.49 64.8769 246.895 65.108C246.304 65.339 245.637 65.4545 244.895 65.4545ZM244.878 60.4602C245.366 60.4602 245.779 60.3466 246.116 60.1193C246.457 59.8883 246.715 59.5587 246.889 59.1307C247.067 58.6989 247.156 58.1818 247.156 57.5795C247.156 56.9924 247.069 56.4754 246.895 56.0284C246.721 55.5814 246.465 55.233 246.128 54.983C245.791 54.7292 245.374 54.6023 244.878 54.6023C244.366 54.6023 243.94 54.7348 243.599 55C243.259 55.2614 243.001 55.6174 242.827 56.0682C242.656 56.5189 242.571 57.0227 242.571 57.5795C242.571 58.1515 242.658 58.6534 242.832 59.0852C243.007 59.517 243.264 59.8542 243.605 60.0966C243.95 60.339 244.374 60.4602 244.878 60.4602Z" fill="white"/>
<line x1="4" y1="76.5" x2="324" y2="76.5" stroke="#A29D9D"/>
<path d="M24.4091 90.3636H26.0909L30.0455 100.023H30.1818L34.1364 90.3636H35.8182V102H34.5V93.1591H34.3864L30.75 102H29.4773L25.8409 93.1591H25.7273V102H24.4091V90.3636ZM42.0071 102.182C41.2192 102.182 40.5279 101.994 39.9332 101.619C39.3423 101.244 38.8802 100.72 38.5469 100.045C38.2173 99.3712 38.0526 98.5833 38.0526 97.6818C38.0526 96.7727 38.2173 95.9792 38.5469 95.3011C38.8802 94.6231 39.3423 94.0966 39.9332 93.7216C40.5279 93.3466 41.2192 93.1591 42.0071 93.1591C42.795 93.1591 43.4844 93.3466 44.0753 93.7216C44.67 94.0966 45.1321 94.6231 45.4616 95.3011C45.795 95.9792 45.9616 96.7727 45.9616 97.6818C45.9616 98.5833 45.795 99.3712 45.4616 100.045C45.1321 100.72 44.67 101.244 44.0753 101.619C43.4844 101.994 42.795 102.182 42.0071 102.182ZM42.0071 100.977C42.6056 100.977 43.098 100.824 43.4844 100.517C43.8707 100.21 44.1567 99.8068 44.3423 99.3068C44.5279 98.8068 44.6207 98.2652 44.6207 97.6818C44.6207 97.0985 44.5279 96.5549 44.3423 96.0511C44.1567 95.5473 43.8707 95.1402 43.4844 94.8295C43.098 94.5189 42.6056 94.3636 42.0071 94.3636C41.4086 94.3636 40.9162 94.5189 40.5298 94.8295C40.1435 95.1402 39.8575 95.5473 39.6719 96.0511C39.4863 96.5549 39.3935 97.0985 39.3935 97.6818C39.3935 98.2652 39.4863 98.8068 39.6719 99.3068C39.8575 99.8068 40.1435 100.21 40.5298 100.517C40.9162 100.824 41.4086 100.977 42.0071 100.977ZM48.0085 102V93.2727H49.304V94.5909H49.3949C49.554 94.1591 49.8419 93.8087 50.2585 93.5398C50.6752 93.2708 51.1449 93.1364 51.6676 93.1364C51.7661 93.1364 51.8892 93.1383 52.0369 93.142C52.1847 93.1458 52.2964 93.1515 52.3722 93.1591V94.5227C52.3267 94.5114 52.2225 94.4943 52.0597 94.4716C51.9006 94.4451 51.732 94.4318 51.554 94.4318C51.1297 94.4318 50.7509 94.5208 50.4176 94.6989C50.0881 94.8731 49.8267 95.1155 49.6335 95.4261C49.4441 95.733 49.3494 96.0833 49.3494 96.4773V102H48.0085ZM55.3026 96.75V102H53.9616V93.2727H55.2571V94.6364H55.3707C55.5753 94.1932 55.8859 93.8371 56.3026 93.5682C56.7192 93.2955 57.2571 93.1591 57.9162 93.1591C58.5071 93.1591 59.0241 93.2803 59.4673 93.5227C59.9105 93.7614 60.2552 94.125 60.5014 94.6136C60.7476 95.0985 60.8707 95.7121 60.8707 96.4545V102H59.5298V96.5455C59.5298 95.8598 59.3518 95.3258 58.9957 94.9432C58.6397 94.5568 58.151 94.3636 57.5298 94.3636C57.1018 94.3636 56.7192 94.4564 56.3821 94.642C56.0488 94.8277 55.7855 95.0985 55.5923 95.4545C55.3991 95.8106 55.3026 96.2424 55.3026 96.75ZM63.321 102V93.2727H64.6619V102H63.321ZM64.0028 91.8182C63.7415 91.8182 63.5161 91.7292 63.3267 91.5511C63.1411 91.3731 63.0483 91.1591 63.0483 90.9091C63.0483 90.6591 63.1411 90.4451 63.3267 90.267C63.5161 90.089 63.7415 90 64.0028 90C64.2642 90 64.4877 90.089 64.6733 90.267C64.8627 90.4451 64.9574 90.6591 64.9574 90.9091C64.9574 91.1591 64.8627 91.3731 64.6733 91.5511C64.4877 91.7292 64.2642 91.8182 64.0028 91.8182ZM68.4588 96.75V102H67.1179V93.2727H68.4134V94.6364H68.527C68.7315 94.1932 69.0421 93.8371 69.4588 93.5682C69.8755 93.2955 70.4134 93.1591 71.0724 93.1591C71.6634 93.1591 72.1804 93.2803 72.6236 93.5227C73.0668 93.7614 73.4115 94.125 73.6577 94.6136C73.9039 95.0985 74.027 95.7121 74.027 96.4545V102H72.6861V96.5455C72.6861 95.8598 72.508 95.3258 72.152 94.9432C71.7959 94.5568 71.3073 94.3636 70.6861 94.3636C70.258 94.3636 69.8755 94.4564 69.5384 94.642C69.205 94.8277 68.9418 95.0985 68.7486 95.4545C68.5554 95.8106 68.4588 96.2424 68.4588 96.75ZM80 105.455C79.3523 105.455 78.7955 105.371 78.3295 105.205C77.8636 105.042 77.4754 104.826 77.1648 104.557C76.858 104.292 76.6136 104.008 76.4318 103.705L77.5 102.955C77.6212 103.114 77.7746 103.295 77.9602 103.5C78.1458 103.708 78.3996 103.888 78.7216 104.04C79.0473 104.195 79.4735 104.273 80 104.273C80.7045 104.273 81.286 104.102 81.7443 103.761C82.2027 103.42 82.4318 102.886 82.4318 102.159V100.386H82.3182C82.2197 100.545 82.0795 100.742 81.8977 100.977C81.7197 101.208 81.4621 101.415 81.125 101.597C80.7917 101.775 80.3409 101.864 79.7727 101.864C79.0682 101.864 78.4356 101.697 77.875 101.364C77.3182 101.03 76.8769 100.545 76.5511 99.9091C76.2292 99.2727 76.0682 98.5 76.0682 97.5909C76.0682 96.697 76.2254 95.9186 76.5398 95.2557C76.8542 94.589 77.2917 94.0739 77.8523 93.7102C78.4129 93.3428 79.0606 93.1591 79.7955 93.1591C80.3636 93.1591 80.8144 93.2538 81.1477 93.4432C81.4848 93.6288 81.7424 93.8409 81.9205 94.0795C82.1023 94.3144 82.2424 94.5076 82.3409 94.6591H82.4773V93.2727H83.7727V102.25C83.7727 103 83.6023 103.61 83.2614 104.08C82.9242 104.553 82.4697 104.9 81.8977 105.119C81.3295 105.343 80.697 105.455 80 105.455ZM79.9545 100.659C80.4924 100.659 80.947 100.536 81.3182 100.29C81.6894 100.044 81.9716 99.6894 82.1648 99.2273C82.358 98.7652 82.4545 98.2121 82.4545 97.5682C82.4545 96.9394 82.3598 96.3845 82.1705 95.9034C81.9811 95.4223 81.7008 95.0455 81.3295 94.7727C80.9583 94.5 80.5 94.3636 79.9545 94.3636C79.3864 94.3636 78.9129 94.5076 78.5341 94.7955C78.1591 95.0833 77.8769 95.4697 77.6875 95.9545C77.5019 96.4394 77.4091 96.9773 77.4091 97.5682C77.4091 98.1742 77.5038 98.7102 77.6932 99.1761C77.8864 99.6383 78.1705 100.002 78.5455 100.267C78.9242 100.528 79.3939 100.659 79.9545 100.659Z" fill="white"/>
<path d="M24.4091 131V119.364H31.4318V120.614H25.8182V124.545H31.0682V125.795H25.8182V129.75H31.5227V131H24.4091ZM40.9261 122.273L37.6989 131H36.3352L33.108 122.273H34.5625L36.9716 129.227H37.0625L39.4716 122.273H40.9261ZM46.0426 131.182C45.2017 131.182 44.4763 130.996 43.8665 130.625C43.2604 130.25 42.7926 129.727 42.4631 129.057C42.1373 128.383 41.9744 127.598 41.9744 126.705C41.9744 125.811 42.1373 125.023 42.4631 124.341C42.7926 123.655 43.2509 123.121 43.8381 122.739C44.429 122.352 45.1184 122.159 45.9062 122.159C46.3608 122.159 46.8097 122.235 47.2528 122.386C47.696 122.538 48.0994 122.784 48.4631 123.125C48.8267 123.462 49.1165 123.909 49.3324 124.466C49.5483 125.023 49.6562 125.708 49.6562 126.523V127.091H42.929V125.932H48.2926C48.2926 125.439 48.1941 125 47.9972 124.614C47.804 124.227 47.5275 123.922 47.1676 123.699C46.8116 123.475 46.3911 123.364 45.9062 123.364C45.3722 123.364 44.91 123.496 44.5199 123.761C44.1335 124.023 43.8362 124.364 43.6278 124.784C43.4195 125.205 43.3153 125.655 43.3153 126.136V126.909C43.3153 127.568 43.429 128.127 43.6562 128.585C43.8873 129.04 44.2074 129.386 44.6165 129.625C45.0256 129.86 45.5009 129.977 46.0426 129.977C46.3949 129.977 46.7131 129.928 46.9972 129.83C47.285 129.727 47.5331 129.576 47.7415 129.375C47.9498 129.17 48.1108 128.917 48.2244 128.614L49.5199 128.977C49.3835 129.417 49.1544 129.803 48.8324 130.136C48.5104 130.466 48.1127 130.723 47.6392 130.909C47.1657 131.091 46.6335 131.182 46.0426 131.182ZM53.0369 125.75V131H51.696V122.273H52.9915V123.636H53.1051C53.3097 123.193 53.6203 122.837 54.0369 122.568C54.4536 122.295 54.9915 122.159 55.6506 122.159C56.2415 122.159 56.7585 122.28 57.2017 122.523C57.6449 122.761 57.9896 123.125 58.2358 123.614C58.482 124.098 58.6051 124.712 58.6051 125.455V131H57.2642V125.545C57.2642 124.86 57.0862 124.326 56.7301 123.943C56.3741 123.557 55.8854 123.364 55.2642 123.364C54.8362 123.364 54.4536 123.456 54.1165 123.642C53.7831 123.828 53.5199 124.098 53.3267 124.455C53.1335 124.811 53.0369 125.242 53.0369 125.75ZM61.0554 131V122.273H62.3963V131H61.0554ZM61.7372 120.818C61.4759 120.818 61.2505 120.729 61.0611 120.551C60.8755 120.373 60.7827 120.159 60.7827 119.909C60.7827 119.659 60.8755 119.445 61.0611 119.267C61.2505 119.089 61.4759 119 61.7372 119C61.9986 119 62.2221 119.089 62.4077 119.267C62.5971 119.445 62.6918 119.659 62.6918 119.909C62.6918 120.159 62.5971 120.373 62.4077 120.551C62.2221 120.729 61.9986 120.818 61.7372 120.818ZM66.1932 125.75V131H64.8523V122.273H66.1477V123.636H66.2614C66.4659 123.193 66.7765 122.837 67.1932 122.568C67.6098 122.295 68.1477 122.159 68.8068 122.159C69.3977 122.159 69.9148 122.28 70.358 122.523C70.8011 122.761 71.1458 123.125 71.392 123.614C71.6383 124.098 71.7614 124.712 71.7614 125.455V131H70.4205V125.545C70.4205 124.86 70.2424 124.326 69.8864 123.943C69.5303 123.557 69.0417 123.364 68.4205 123.364C67.9924 123.364 67.6098 123.456 67.2727 123.642C66.9394 123.828 66.6761 124.098 66.483 124.455C66.2898 124.811 66.1932 125.242 66.1932 125.75ZM77.7344 134.455C77.0866 134.455 76.5298 134.371 76.0639 134.205C75.598 134.042 75.2098 133.826 74.8991 133.557C74.5923 133.292 74.348 133.008 74.1662 132.705L75.2344 131.955C75.3556 132.114 75.509 132.295 75.6946 132.5C75.8802 132.708 76.134 132.888 76.456 133.04C76.7817 133.195 77.2079 133.273 77.7344 133.273C78.4389 133.273 79.0204 133.102 79.4787 132.761C79.937 132.42 80.1662 131.886 80.1662 131.159V129.386H80.0526C79.9541 129.545 79.8139 129.742 79.6321 129.977C79.4541 130.208 79.1965 130.415 78.8594 130.597C78.526 130.775 78.0753 130.864 77.5071 130.864C76.8026 130.864 76.17 130.697 75.6094 130.364C75.0526 130.03 74.6113 129.545 74.2855 128.909C73.9635 128.273 73.8026 127.5 73.8026 126.591C73.8026 125.697 73.9598 124.919 74.2741 124.256C74.5885 123.589 75.026 123.074 75.5866 122.71C76.1473 122.343 76.795 122.159 77.5298 122.159C78.098 122.159 78.5488 122.254 78.8821 122.443C79.2192 122.629 79.4768 122.841 79.6548 123.08C79.8366 123.314 79.9768 123.508 80.0753 123.659H80.2116V122.273H81.5071V131.25C81.5071 132 81.3366 132.61 80.9957 133.08C80.6586 133.553 80.2041 133.9 79.6321 134.119C79.0639 134.343 78.4313 134.455 77.7344 134.455ZM77.6889 129.659C78.2268 129.659 78.6813 129.536 79.0526 129.29C79.4238 129.044 79.706 128.689 79.8991 128.227C80.0923 127.765 80.1889 127.212 80.1889 126.568C80.1889 125.939 80.0942 125.384 79.9048 124.903C79.7154 124.422 79.4351 124.045 79.0639 123.773C78.6927 123.5 78.2344 123.364 77.6889 123.364C77.1207 123.364 76.6473 123.508 76.2685 123.795C75.8935 124.083 75.6113 124.47 75.4219 124.955C75.2363 125.439 75.1435 125.977 75.1435 126.568C75.1435 127.174 75.2382 127.71 75.4276 128.176C75.6207 128.638 75.9048 129.002 76.2798 129.267C76.6586 129.528 77.1283 129.659 77.6889 129.659Z" fill="white"/>
<path d="M30.7727 151.273C30.7045 150.697 30.428 150.25 29.9432 149.932C29.4583 149.614 28.8636 149.455 28.1591 149.455C27.6439 149.455 27.1932 149.538 26.8068 149.705C26.4242 149.871 26.125 150.1 25.9091 150.392C25.697 150.684 25.5909 151.015 25.5909 151.386C25.5909 151.697 25.6648 151.964 25.8125 152.188C25.964 152.407 26.1572 152.591 26.392 152.739C26.6269 152.883 26.8731 153.002 27.1307 153.097C27.3883 153.187 27.625 153.261 27.8409 153.318L29.0227 153.636C29.3258 153.716 29.6629 153.826 30.0341 153.966C30.4091 154.106 30.767 154.297 31.108 154.54C31.4527 154.778 31.7367 155.085 31.9602 155.46C32.1837 155.835 32.2955 156.295 32.2955 156.841C32.2955 157.47 32.1307 158.038 31.8011 158.545C31.4754 159.053 30.9981 159.456 30.3693 159.756C29.7443 160.055 28.9848 160.205 28.0909 160.205C27.2576 160.205 26.536 160.07 25.9261 159.801C25.3201 159.532 24.8428 159.157 24.4943 158.676C24.1496 158.195 23.9545 157.636 23.9091 157H25.3636C25.4015 157.439 25.5492 157.803 25.8068 158.091C26.0682 158.375 26.3977 158.587 26.7955 158.727C27.197 158.864 27.6288 158.932 28.0909 158.932C28.6288 158.932 29.1117 158.845 29.5398 158.67C29.9678 158.492 30.3068 158.246 30.5568 157.932C30.8068 157.614 30.9318 157.242 30.9318 156.818C30.9318 156.432 30.8239 156.117 30.608 155.875C30.392 155.633 30.108 155.436 29.7557 155.284C29.4034 155.133 29.0227 155 28.6136 154.886L27.1818 154.477C26.2727 154.216 25.553 153.843 25.0227 153.358C24.4924 152.873 24.2273 152.239 24.2273 151.455C24.2273 150.803 24.4034 150.235 24.7557 149.75C25.1117 149.261 25.589 148.883 26.1875 148.614C26.7898 148.341 27.4621 148.205 28.2045 148.205C28.9545 148.205 29.6212 148.339 30.2045 148.608C30.7879 148.873 31.25 149.237 31.5909 149.699C31.9356 150.161 32.1174 150.686 32.1364 151.273H30.7727ZM39.9304 156.432V151.273H41.2713V160H39.9304V158.523H39.8395C39.6349 158.966 39.3168 159.343 38.8849 159.653C38.4531 159.96 37.9077 160.114 37.2486 160.114C36.7031 160.114 36.2183 159.994 35.794 159.756C35.3698 159.513 35.0365 159.15 34.794 158.665C34.5516 158.176 34.4304 157.561 34.4304 156.818V151.273H35.7713V156.727C35.7713 157.364 35.9493 157.871 36.3054 158.25C36.6652 158.629 37.1236 158.818 37.6804 158.818C38.0137 158.818 38.3527 158.733 38.6974 158.562C39.0459 158.392 39.3376 158.131 39.5724 157.778C39.8111 157.426 39.9304 156.977 39.9304 156.432ZM45.0682 154.75V160H43.7273V151.273H45.0227V152.636H45.1364C45.3409 152.193 45.6515 151.837 46.0682 151.568C46.4848 151.295 47.0227 151.159 47.6818 151.159C48.2727 151.159 48.7898 151.28 49.233 151.523C49.6761 151.761 50.0208 152.125 50.267 152.614C50.5133 153.098 50.6364 153.712 50.6364 154.455V160H49.2955V154.545C49.2955 153.86 49.1174 153.326 48.7614 152.943C48.4053 152.557 47.9167 152.364 47.2955 152.364C46.8674 152.364 46.4848 152.456 46.1477 152.642C45.8144 152.828 45.5511 153.098 45.358 153.455C45.1648 153.811 45.0682 154.242 45.0682 154.75ZM56.3821 160.182C55.6548 160.182 55.0128 159.998 54.456 159.631C53.8991 159.259 53.4635 158.737 53.1491 158.062C52.8348 157.384 52.6776 156.583 52.6776 155.659C52.6776 154.742 52.8348 153.947 53.1491 153.273C53.4635 152.598 53.901 152.078 54.4616 151.71C55.0223 151.343 55.67 151.159 56.4048 151.159C56.973 151.159 57.4219 151.254 57.7514 151.443C58.0848 151.629 58.3385 151.841 58.5128 152.08C58.6908 152.314 58.8291 152.508 58.9276 152.659H59.0412V148.364H60.3821V160H59.0866V158.659H58.9276C58.8291 158.818 58.6889 159.019 58.5071 159.261C58.3253 159.5 58.0658 159.714 57.7287 159.903C57.3916 160.089 56.9427 160.182 56.3821 160.182ZM56.5639 158.977C57.1018 158.977 57.5563 158.837 57.9276 158.557C58.2988 158.273 58.581 157.881 58.7741 157.381C58.9673 156.877 59.0639 156.295 59.0639 155.636C59.0639 154.985 58.9692 154.415 58.7798 153.926C58.5904 153.434 58.3101 153.051 57.9389 152.778C57.5677 152.502 57.1094 152.364 56.5639 152.364C55.9957 152.364 55.5223 152.509 55.1435 152.801C54.7685 153.089 54.4863 153.481 54.2969 153.977C54.1113 154.47 54.0185 155.023 54.0185 155.636C54.0185 156.258 54.1132 156.822 54.3026 157.33C54.4957 157.833 54.7798 158.235 55.1548 158.534C55.5336 158.83 56.0033 158.977 56.5639 158.977ZM65.5923 160.205C65.0393 160.205 64.5374 160.1 64.0866 159.892C63.6359 159.68 63.2779 159.375 63.0128 158.977C62.7476 158.576 62.6151 158.091 62.6151 157.523C62.6151 157.023 62.7135 156.617 62.9105 156.307C63.1075 155.992 63.3707 155.746 63.7003 155.568C64.0298 155.39 64.3935 155.258 64.7912 155.17C65.1927 155.08 65.5961 155.008 66.0014 154.955C66.5317 154.886 66.9616 154.835 67.2912 154.801C67.6245 154.763 67.867 154.701 68.0185 154.614C68.1738 154.527 68.2514 154.375 68.2514 154.159V154.114C68.2514 153.553 68.098 153.117 67.7912 152.807C67.4882 152.496 67.0279 152.341 66.4105 152.341C65.7704 152.341 65.2685 152.481 64.9048 152.761C64.5412 153.042 64.2855 153.341 64.1378 153.659L62.8651 153.205C63.0923 152.674 63.3954 152.261 63.7741 151.966C64.1567 151.667 64.5734 151.458 65.0241 151.341C65.4787 151.22 65.9257 151.159 66.3651 151.159C66.6454 151.159 66.9673 151.193 67.331 151.261C67.6984 151.326 68.0526 151.46 68.3935 151.665C68.7382 151.869 69.0241 152.178 69.2514 152.591C69.4787 153.004 69.5923 153.557 69.5923 154.25V160H68.2514V158.818H68.1832C68.0923 159.008 67.9408 159.21 67.7287 159.426C67.5166 159.642 67.2344 159.826 66.8821 159.977C66.5298 160.129 66.0999 160.205 65.5923 160.205ZM65.7969 159C66.3272 159 66.7741 158.896 67.1378 158.688C67.5052 158.479 67.7817 158.21 67.9673 157.881C68.1567 157.551 68.2514 157.205 68.2514 156.841V155.614C68.1946 155.682 68.0696 155.744 67.8764 155.801C67.687 155.854 67.4673 155.902 67.2173 155.943C66.9711 155.981 66.7306 156.015 66.4957 156.045C66.2647 156.072 66.0772 156.095 65.9332 156.114C65.5848 156.159 65.259 156.233 64.956 156.335C64.6567 156.434 64.4143 156.583 64.2287 156.784C64.0469 156.981 63.956 157.25 63.956 157.591C63.956 158.057 64.1283 158.409 64.473 158.648C64.8215 158.883 65.2628 159 65.7969 159ZM72.5909 163.273C72.3636 163.273 72.161 163.254 71.983 163.216C71.8049 163.182 71.6818 163.148 71.6136 163.114L71.9545 161.932C72.2803 162.015 72.5682 162.045 72.8182 162.023C73.0682 162 73.2898 161.888 73.483 161.688C73.6799 161.491 73.8598 161.17 74.0227 160.727L74.2727 160.045L71.0455 151.273H72.5L74.9091 158.227H75L77.4091 151.273H78.8636L75.1591 161.273C74.9924 161.723 74.786 162.097 74.5398 162.392C74.2936 162.691 74.0076 162.913 73.6818 163.057C73.3598 163.201 72.9962 163.273 72.5909 163.273Z" fill="white"/>
<path d="M202.909 90.2045C203.386 90.2083 203.864 90.2992 204.341 90.4773C204.818 90.6553 205.254 90.9508 205.648 91.3636C206.042 91.7727 206.358 92.3314 206.597 93.0398C206.835 93.7481 206.955 94.6364 206.955 95.7045C206.955 96.7386 206.856 97.6572 206.659 98.4602C206.466 99.2595 206.186 99.9337 205.818 100.483C205.455 101.032 205.011 101.449 204.489 101.733C203.97 102.017 203.383 102.159 202.727 102.159C202.076 102.159 201.494 102.03 200.983 101.773C200.475 101.511 200.059 101.15 199.733 100.688C199.411 100.222 199.205 99.6818 199.114 99.0682H200.5C200.625 99.6023 200.873 100.044 201.244 100.392C201.619 100.737 202.114 100.909 202.727 100.909C203.625 100.909 204.333 100.517 204.852 99.733C205.375 98.9489 205.636 97.8409 205.636 96.4091H205.545C205.333 96.7273 205.081 97.0019 204.79 97.233C204.498 97.464 204.174 97.642 203.818 97.767C203.462 97.892 203.083 97.9545 202.682 97.9545C202.015 97.9545 201.403 97.7898 200.847 97.4602C200.294 97.1269 199.85 96.6705 199.517 96.0909C199.188 95.5076 199.023 94.8409 199.023 94.0909C199.023 93.3788 199.182 92.7273 199.5 92.1364C199.822 91.5417 200.273 91.0682 200.852 90.7159C201.436 90.3636 202.121 90.1932 202.909 90.2045ZM202.909 91.4545C202.432 91.4545 202.002 91.5739 201.619 91.8125C201.241 92.0473 200.939 92.3655 200.716 92.767C200.496 93.1648 200.386 93.6061 200.386 94.0909C200.386 94.5758 200.492 95.017 200.705 95.4148C200.92 95.8087 201.214 96.1231 201.585 96.358C201.96 96.589 202.386 96.7045 202.864 96.7045C203.223 96.7045 203.559 96.6345 203.869 96.4943C204.18 96.3504 204.451 96.1553 204.682 95.9091C204.917 95.6591 205.1 95.3769 205.233 95.0625C205.366 94.7443 205.432 94.4129 205.432 94.0682C205.432 93.6136 205.322 93.1875 205.102 92.7898C204.886 92.392 204.587 92.0701 204.205 91.8239C203.826 91.5777 203.394 91.4545 202.909 91.4545ZM210.189 100.511C209.909 100.511 209.668 100.411 209.467 100.21C209.267 100.009 209.166 99.7689 209.166 99.4886C209.166 99.2083 209.267 98.9678 209.467 98.767C209.668 98.5663 209.909 98.4659 210.189 98.4659C210.469 98.4659 210.71 98.5663 210.911 98.767C211.111 98.9678 211.212 99.2083 211.212 99.4886C211.212 99.6742 211.164 99.8447 211.07 100C210.979 100.155 210.856 100.28 210.7 100.375C210.549 100.466 210.378 100.511 210.189 100.511ZM210.189 94.625C209.909 94.625 209.668 94.5246 209.467 94.3239C209.267 94.1231 209.166 93.8826 209.166 93.6023C209.166 93.322 209.267 93.0814 209.467 92.8807C209.668 92.6799 209.909 92.5795 210.189 92.5795C210.469 92.5795 210.71 92.6799 210.911 92.8807C211.111 93.0814 211.212 93.322 211.212 93.6023C211.212 93.7879 211.164 93.9583 211.07 94.1136C210.979 94.2689 210.856 94.3939 210.7 94.4886C210.549 94.5795 210.378 94.625 210.189 94.625ZM217.391 102.159C216.535 102.159 215.805 101.926 215.203 101.46C214.601 100.991 214.141 100.311 213.822 99.4205C213.504 98.5265 213.345 97.447 213.345 96.1818C213.345 94.9242 213.504 93.8504 213.822 92.9602C214.144 92.0663 214.607 91.3845 215.209 90.9148C215.815 90.4413 216.542 90.2045 217.391 90.2045C218.239 90.2045 218.964 90.4413 219.567 90.9148C220.173 91.3845 220.635 92.0663 220.953 92.9602C221.275 93.8504 221.436 94.9242 221.436 96.1818C221.436 97.447 221.277 98.5265 220.959 99.4205C220.641 100.311 220.18 100.991 219.578 101.46C218.976 101.926 218.247 102.159 217.391 102.159ZM217.391 100.909C218.239 100.909 218.898 100.5 219.368 99.6818C219.838 98.8636 220.072 97.697 220.072 96.1818C220.072 95.1742 219.964 94.3163 219.749 93.608C219.536 92.8996 219.23 92.3598 218.828 91.9886C218.43 91.6174 217.951 91.4318 217.391 91.4318C216.55 91.4318 215.893 91.8466 215.419 92.6761C214.946 93.5019 214.709 94.6705 214.709 96.1818C214.709 97.1894 214.815 98.0455 215.027 98.75C215.239 99.4545 215.544 99.9905 215.942 100.358C216.343 100.725 216.826 100.909 217.391 100.909ZM227.391 102.159C226.535 102.159 225.805 101.926 225.203 101.46C224.601 100.991 224.141 100.311 223.822 99.4205C223.504 98.5265 223.345 97.447 223.345 96.1818C223.345 94.9242 223.504 93.8504 223.822 92.9602C224.144 92.0663 224.607 91.3845 225.209 90.9148C225.815 90.4413 226.542 90.2045 227.391 90.2045C228.239 90.2045 228.964 90.4413 229.567 90.9148C230.173 91.3845 230.635 92.0663 230.953 92.9602C231.275 93.8504 231.436 94.9242 231.436 96.1818C231.436 97.447 231.277 98.5265 230.959 99.4205C230.641 100.311 230.18 100.991 229.578 101.46C228.976 101.926 228.247 102.159 227.391 102.159ZM227.391 100.909C228.239 100.909 228.898 100.5 229.368 99.6818C229.838 98.8636 230.072 97.697 230.072 96.1818C230.072 95.1742 229.964 94.3163 229.749 93.608C229.536 92.8996 229.23 92.3598 228.828 91.9886C228.43 91.6174 227.951 91.4318 227.391 91.4318C226.55 91.4318 225.893 91.8466 225.419 92.6761C224.946 93.5019 224.709 94.6705 224.709 96.1818C224.709 97.1894 224.815 98.0455 225.027 98.75C225.239 99.4545 225.544 99.9905 225.942 100.358C226.343 100.725 226.826 100.909 227.391 100.909ZM238.618 95.5568V96.8068H233.527V95.5568H238.618ZM245.045 90.3636V102H243.636V91.8409H243.568L240.727 93.7273V92.2955L243.636 90.3636H245.045ZM248.392 102V100.977L252.233 96.7727C252.684 96.2803 253.055 95.8523 253.347 95.4886C253.638 95.1212 253.854 94.7765 253.994 94.4545C254.138 94.1288 254.21 93.7879 254.21 93.4318C254.21 93.0227 254.112 92.6686 253.915 92.3693C253.722 92.0701 253.456 91.839 253.119 91.6761C252.782 91.5133 252.403 91.4318 251.983 91.4318C251.536 91.4318 251.146 91.5246 250.812 91.7102C250.483 91.892 250.227 92.1477 250.045 92.4773C249.867 92.8068 249.778 93.1932 249.778 93.6364H248.438C248.438 92.9545 248.595 92.3561 248.909 91.8409C249.223 91.3258 249.652 90.9242 250.193 90.6364C250.739 90.3485 251.35 90.2045 252.028 90.2045C252.71 90.2045 253.314 90.3485 253.841 90.6364C254.367 90.9242 254.78 91.3125 255.08 91.8011C255.379 92.2898 255.528 92.8333 255.528 93.4318C255.528 93.8598 255.451 94.2784 255.295 94.6875C255.144 95.0928 254.879 95.5455 254.5 96.0455C254.125 96.5417 253.604 97.1477 252.938 97.8636L250.324 100.659V100.75H255.733V102H248.392ZM259.08 100.511C258.799 100.511 258.559 100.411 258.358 100.21C258.157 100.009 258.057 99.7689 258.057 99.4886C258.057 99.2083 258.157 98.9678 258.358 98.767C258.559 98.5663 258.799 98.4659 259.08 98.4659C259.36 98.4659 259.6 98.5663 259.801 98.767C260.002 98.9678 260.102 99.2083 260.102 99.4886C260.102 99.6742 260.055 99.8447 259.96 100C259.869 100.155 259.746 100.28 259.591 100.375C259.439 100.466 259.269 100.511 259.08 100.511ZM259.08 94.625C258.799 94.625 258.559 94.5246 258.358 94.3239C258.157 94.1231 258.057 93.8826 258.057 93.6023C258.057 93.322 258.157 93.0814 258.358 92.8807C258.559 92.6799 258.799 92.5795 259.08 92.5795C259.36 92.5795 259.6 92.6799 259.801 92.8807C260.002 93.0814 260.102 93.322 260.102 93.6023C260.102 93.7879 260.055 93.9583 259.96 94.1136C259.869 94.2689 259.746 94.3939 259.591 94.4886C259.439 94.5795 259.269 94.625 259.08 94.625ZM266.281 102.159C265.425 102.159 264.696 101.926 264.094 101.46C263.491 100.991 263.031 100.311 262.713 99.4205C262.395 98.5265 262.236 97.447 262.236 96.1818C262.236 94.9242 262.395 93.8504 262.713 92.9602C263.035 92.0663 263.497 91.3845 264.099 90.9148C264.705 90.4413 265.433 90.2045 266.281 90.2045C267.13 90.2045 267.855 90.4413 268.457 90.9148C269.063 91.3845 269.526 92.0663 269.844 92.9602C270.166 93.8504 270.327 94.9242 270.327 96.1818C270.327 97.447 270.168 98.5265 269.849 99.4205C269.531 100.311 269.071 100.991 268.469 101.46C267.866 101.926 267.137 102.159 266.281 102.159ZM266.281 100.909C267.13 100.909 267.789 100.5 268.259 99.6818C268.728 98.8636 268.963 97.697 268.963 96.1818C268.963 95.1742 268.855 94.3163 268.639 93.608C268.427 92.8996 268.12 92.3598 267.719 91.9886C267.321 91.6174 266.842 91.4318 266.281 91.4318C265.44 91.4318 264.783 91.8466 264.31 92.6761C263.836 93.5019 263.599 94.6705 263.599 96.1818C263.599 97.1894 263.705 98.0455 263.918 98.75C264.13 99.4545 264.435 99.9905 264.832 100.358C265.234 100.725 265.717 100.909 266.281 100.909ZM276.281 102.159C275.425 102.159 274.696 101.926 274.094 101.46C273.491 100.991 273.031 100.311 272.713 99.4205C272.395 98.5265 272.236 97.447 272.236 96.1818C272.236 94.9242 272.395 93.8504 272.713 92.9602C273.035 92.0663 273.497 91.3845 274.099 90.9148C274.705 90.4413 275.433 90.2045 276.281 90.2045C277.13 90.2045 277.855 90.4413 278.457 90.9148C279.063 91.3845 279.526 92.0663 279.844 92.9602C280.166 93.8504 280.327 94.9242 280.327 96.1818C280.327 97.447 280.168 98.5265 279.849 99.4205C279.531 100.311 279.071 100.991 278.469 101.46C277.866 101.926 277.137 102.159 276.281 102.159ZM276.281 100.909C277.13 100.909 277.789 100.5 278.259 99.6818C278.728 98.8636 278.963 97.697 278.963 96.1818C278.963 95.1742 278.855 94.3163 278.639 93.608C278.427 92.8996 278.12 92.3598 277.719 91.9886C277.321 91.6174 276.842 91.4318 276.281 91.4318C275.44 91.4318 274.783 91.8466 274.31 92.6761C273.836 93.5019 273.599 94.6705 273.599 96.1818C273.599 97.1894 273.705 98.0455 273.918 98.75C274.13 99.4545 274.435 99.9905 274.832 100.358C275.234 100.725 275.717 100.909 276.281 100.909ZM282.509 105.273V93.2727H283.804V94.6591H283.963C284.062 94.5076 284.198 94.3144 284.372 94.0795C284.55 93.8409 284.804 93.6288 285.134 93.4432C285.467 93.2538 285.918 93.1591 286.486 93.1591C287.221 93.1591 287.868 93.3428 288.429 93.7102C288.99 94.0777 289.427 94.5985 289.741 95.2727C290.056 95.947 290.213 96.7424 290.213 97.6591C290.213 98.5833 290.056 99.3845 289.741 100.062C289.427 100.737 288.991 101.259 288.435 101.631C287.878 101.998 287.236 102.182 286.509 102.182C285.948 102.182 285.499 102.089 285.162 101.903C284.825 101.714 284.565 101.5 284.384 101.261C284.202 101.019 284.062 100.818 283.963 100.659H283.849V105.273H282.509ZM283.827 97.6364C283.827 98.2955 283.923 98.8769 284.116 99.3807C284.31 99.8807 284.592 100.273 284.963 100.557C285.334 100.837 285.789 100.977 286.327 100.977C286.887 100.977 287.355 100.83 287.73 100.534C288.109 100.235 288.393 99.8333 288.582 99.3295C288.776 98.822 288.872 98.2576 288.872 97.6364C288.872 97.0227 288.777 96.4697 288.588 95.9773C288.402 95.4811 288.12 95.089 287.741 94.8011C287.366 94.5095 286.895 94.3636 286.327 94.3636C285.781 94.3636 285.323 94.5019 284.952 94.7784C284.58 95.0511 284.3 95.4337 284.111 95.9261C283.921 96.4148 283.827 96.9848 283.827 97.6364ZM292.259 102V93.2727H293.554V94.6364H293.668C293.849 94.1705 294.143 93.8087 294.548 93.5511C294.954 93.2898 295.44 93.1591 296.009 93.1591C296.584 93.1591 297.063 93.2898 297.446 93.5511C297.832 93.8087 298.134 94.1705 298.349 94.6364H298.44C298.664 94.1856 298.999 93.8277 299.446 93.5625C299.893 93.2936 300.429 93.1591 301.054 93.1591C301.834 93.1591 302.473 93.4034 302.969 93.892C303.465 94.3769 303.713 95.1326 303.713 96.1591V102H302.372V96.1591C302.372 95.5152 302.196 95.0549 301.844 94.7784C301.491 94.5019 301.077 94.3636 300.599 94.3636C299.986 94.3636 299.51 94.5492 299.173 94.9205C298.836 95.2879 298.668 95.7538 298.668 96.3182V102H297.304V96.0227C297.304 95.5265 297.143 95.1269 296.821 94.8239C296.499 94.517 296.084 94.3636 295.577 94.3636C295.228 94.3636 294.902 94.4564 294.599 94.642C294.3 94.8277 294.058 95.0852 293.872 95.4148C293.69 95.7405 293.599 96.1174 293.599 96.5455V102H292.259Z" fill="white"/>
<path d="M203.068 131.159C202.591 131.152 202.114 131.061 201.636 130.886C201.159 130.712 200.723 130.419 200.33 130.006C199.936 129.589 199.619 129.027 199.381 128.318C199.142 127.606 199.023 126.712 199.023 125.636C199.023 124.606 199.119 123.693 199.312 122.898C199.506 122.098 199.786 121.426 200.153 120.881C200.521 120.331 200.964 119.915 201.483 119.631C202.006 119.347 202.595 119.205 203.25 119.205C203.902 119.205 204.481 119.335 204.989 119.597C205.5 119.854 205.917 120.214 206.239 120.676C206.561 121.138 206.769 121.67 206.864 122.273H205.477C205.348 121.75 205.098 121.316 204.727 120.972C204.356 120.627 203.864 120.455 203.25 120.455C202.348 120.455 201.638 120.847 201.119 121.631C200.604 122.415 200.345 123.515 200.341 124.932H200.432C200.644 124.61 200.896 124.335 201.188 124.108C201.483 123.877 201.809 123.699 202.165 123.574C202.521 123.449 202.898 123.386 203.295 123.386C203.962 123.386 204.572 123.553 205.125 123.886C205.678 124.216 206.121 124.672 206.455 125.256C206.788 125.835 206.955 126.5 206.955 127.25C206.955 127.97 206.794 128.629 206.472 129.227C206.15 129.822 205.697 130.295 205.114 130.648C204.534 130.996 203.852 131.167 203.068 131.159ZM203.068 129.909C203.545 129.909 203.973 129.79 204.352 129.551C204.735 129.312 205.036 128.992 205.256 128.591C205.479 128.189 205.591 127.742 205.591 127.25C205.591 126.769 205.483 126.331 205.267 125.938C205.055 125.54 204.761 125.223 204.386 124.989C204.015 124.754 203.591 124.636 203.114 124.636C202.754 124.636 202.419 124.708 202.108 124.852C201.797 124.992 201.525 125.186 201.29 125.432C201.059 125.678 200.877 125.96 200.744 126.278C200.612 126.593 200.545 126.924 200.545 127.273C200.545 127.735 200.653 128.167 200.869 128.568C201.089 128.97 201.388 129.294 201.767 129.54C202.15 129.786 202.583 129.909 203.068 129.909ZM210.189 129.511C209.909 129.511 209.668 129.411 209.467 129.21C209.267 129.009 209.166 128.769 209.166 128.489C209.166 128.208 209.267 127.968 209.467 127.767C209.668 127.566 209.909 127.466 210.189 127.466C210.469 127.466 210.71 127.566 210.911 127.767C211.111 127.968 211.212 128.208 211.212 128.489C211.212 128.674 211.164 128.845 211.07 129C210.979 129.155 210.856 129.28 210.7 129.375C210.549 129.466 210.378 129.511 210.189 129.511ZM210.189 123.625C209.909 123.625 209.668 123.525 209.467 123.324C209.267 123.123 209.166 122.883 209.166 122.602C209.166 122.322 209.267 122.081 209.467 121.881C209.668 121.68 209.909 121.58 210.189 121.58C210.469 121.58 210.71 121.68 210.911 121.881C211.111 122.081 211.212 122.322 211.212 122.602C211.212 122.788 211.164 122.958 211.07 123.114C210.979 123.269 210.856 123.394 210.7 123.489C210.549 123.58 210.378 123.625 210.189 123.625ZM217.391 131.159C216.535 131.159 215.805 130.926 215.203 130.46C214.601 129.991 214.141 129.311 213.822 128.42C213.504 127.527 213.345 126.447 213.345 125.182C213.345 123.924 213.504 122.85 213.822 121.96C214.144 121.066 214.607 120.384 215.209 119.915C215.815 119.441 216.542 119.205 217.391 119.205C218.239 119.205 218.964 119.441 219.567 119.915C220.173 120.384 220.635 121.066 220.953 121.96C221.275 122.85 221.436 123.924 221.436 125.182C221.436 126.447 221.277 127.527 220.959 128.42C220.641 129.311 220.18 129.991 219.578 130.46C218.976 130.926 218.247 131.159 217.391 131.159ZM217.391 129.909C218.239 129.909 218.898 129.5 219.368 128.682C219.838 127.864 220.072 126.697 220.072 125.182C220.072 124.174 219.964 123.316 219.749 122.608C219.536 121.9 219.23 121.36 218.828 120.989C218.43 120.617 217.951 120.432 217.391 120.432C216.55 120.432 215.893 120.847 215.419 121.676C214.946 122.502 214.709 123.67 214.709 125.182C214.709 126.189 214.815 127.045 215.027 127.75C215.239 128.455 215.544 128.991 215.942 129.358C216.343 129.725 216.826 129.909 217.391 129.909ZM227.391 131.159C226.535 131.159 225.805 130.926 225.203 130.46C224.601 129.991 224.141 129.311 223.822 128.42C223.504 127.527 223.345 126.447 223.345 125.182C223.345 123.924 223.504 122.85 223.822 121.96C224.144 121.066 224.607 120.384 225.209 119.915C225.815 119.441 226.542 119.205 227.391 119.205C228.239 119.205 228.964 119.441 229.567 119.915C230.173 120.384 230.635 121.066 230.953 121.96C231.275 122.85 231.436 123.924 231.436 125.182C231.436 126.447 231.277 127.527 230.959 128.42C230.641 129.311 230.18 129.991 229.578 130.46C228.976 130.926 228.247 131.159 227.391 131.159ZM227.391 129.909C228.239 129.909 228.898 129.5 229.368 128.682C229.838 127.864 230.072 126.697 230.072 125.182C230.072 124.174 229.964 123.316 229.749 122.608C229.536 121.9 229.23 121.36 228.828 120.989C228.43 120.617 227.951 120.432 227.391 120.432C226.55 120.432 225.893 120.847 225.419 121.676C224.946 122.502 224.709 123.67 224.709 125.182C224.709 126.189 224.815 127.045 225.027 127.75C225.239 128.455 225.544 128.991 225.942 129.358C226.343 129.725 226.826 129.909 227.391 129.909ZM238.618 124.557V125.807H233.527V124.557H238.618ZM244.659 119.205C245.136 119.208 245.614 119.299 246.091 119.477C246.568 119.655 247.004 119.951 247.398 120.364C247.792 120.773 248.108 121.331 248.347 122.04C248.585 122.748 248.705 123.636 248.705 124.705C248.705 125.739 248.606 126.657 248.409 127.46C248.216 128.259 247.936 128.934 247.568 129.483C247.205 130.032 246.761 130.449 246.239 130.733C245.72 131.017 245.133 131.159 244.477 131.159C243.826 131.159 243.244 131.03 242.733 130.773C242.225 130.511 241.809 130.15 241.483 129.688C241.161 129.222 240.955 128.682 240.864 128.068H242.25C242.375 128.602 242.623 129.044 242.994 129.392C243.369 129.737 243.864 129.909 244.477 129.909C245.375 129.909 246.083 129.517 246.602 128.733C247.125 127.949 247.386 126.841 247.386 125.409H247.295C247.083 125.727 246.831 126.002 246.54 126.233C246.248 126.464 245.924 126.642 245.568 126.767C245.212 126.892 244.833 126.955 244.432 126.955C243.765 126.955 243.153 126.79 242.597 126.46C242.044 126.127 241.6 125.67 241.267 125.091C240.938 124.508 240.773 123.841 240.773 123.091C240.773 122.379 240.932 121.727 241.25 121.136C241.572 120.542 242.023 120.068 242.602 119.716C243.186 119.364 243.871 119.193 244.659 119.205ZM244.659 120.455C244.182 120.455 243.752 120.574 243.369 120.812C242.991 121.047 242.689 121.366 242.466 121.767C242.246 122.165 242.136 122.606 242.136 123.091C242.136 123.576 242.242 124.017 242.455 124.415C242.67 124.809 242.964 125.123 243.335 125.358C243.71 125.589 244.136 125.705 244.614 125.705C244.973 125.705 245.309 125.634 245.619 125.494C245.93 125.35 246.201 125.155 246.432 124.909C246.667 124.659 246.85 124.377 246.983 124.062C247.116 123.744 247.182 123.413 247.182 123.068C247.182 122.614 247.072 122.187 246.852 121.79C246.636 121.392 246.337 121.07 245.955 120.824C245.576 120.578 245.144 120.455 244.659 120.455ZM251.939 129.511C251.659 129.511 251.418 129.411 251.217 129.21C251.017 129.009 250.916 128.769 250.916 128.489C250.916 128.208 251.017 127.968 251.217 127.767C251.418 127.566 251.659 127.466 251.939 127.466C252.219 127.466 252.46 127.566 252.661 127.767C252.861 127.968 252.962 128.208 252.962 128.489C252.962 128.674 252.914 128.845 252.82 129C252.729 129.155 252.606 129.28 252.45 129.375C252.299 129.466 252.128 129.511 251.939 129.511ZM251.939 123.625C251.659 123.625 251.418 123.525 251.217 123.324C251.017 123.123 250.916 122.883 250.916 122.602C250.916 122.322 251.017 122.081 251.217 121.881C251.418 121.68 251.659 121.58 251.939 121.58C252.219 121.58 252.46 121.68 252.661 121.881C252.861 122.081 252.962 122.322 252.962 122.602C252.962 122.788 252.914 122.958 252.82 123.114C252.729 123.269 252.606 123.394 252.45 123.489C252.299 123.58 252.128 123.625 251.939 123.625ZM259.141 131.159C258.285 131.159 257.555 130.926 256.953 130.46C256.351 129.991 255.891 129.311 255.572 128.42C255.254 127.527 255.095 126.447 255.095 125.182C255.095 123.924 255.254 122.85 255.572 121.96C255.894 121.066 256.357 120.384 256.959 119.915C257.565 119.441 258.292 119.205 259.141 119.205C259.989 119.205 260.714 119.441 261.317 119.915C261.923 120.384 262.385 121.066 262.703 121.96C263.025 122.85 263.186 123.924 263.186 125.182C263.186 126.447 263.027 127.527 262.709 128.42C262.391 129.311 261.93 129.991 261.328 130.46C260.726 130.926 259.997 131.159 259.141 131.159ZM259.141 129.909C259.989 129.909 260.648 129.5 261.118 128.682C261.588 127.864 261.822 126.697 261.822 125.182C261.822 124.174 261.714 123.316 261.499 122.608C261.286 121.9 260.98 121.36 260.578 120.989C260.18 120.617 259.701 120.432 259.141 120.432C258.3 120.432 257.643 120.847 257.169 121.676C256.696 122.502 256.459 123.67 256.459 125.182C256.459 126.189 256.565 127.045 256.777 127.75C256.989 128.455 257.294 128.991 257.692 129.358C258.093 129.725 258.576 129.909 259.141 129.909ZM269.141 131.159C268.285 131.159 267.555 130.926 266.953 130.46C266.351 129.991 265.891 129.311 265.572 128.42C265.254 127.527 265.095 126.447 265.095 125.182C265.095 123.924 265.254 122.85 265.572 121.96C265.894 121.066 266.357 120.384 266.959 119.915C267.565 119.441 268.292 119.205 269.141 119.205C269.989 119.205 270.714 119.441 271.317 119.915C271.923 120.384 272.385 121.066 272.703 121.96C273.025 122.85 273.186 123.924 273.186 125.182C273.186 126.447 273.027 127.527 272.709 128.42C272.391 129.311 271.93 129.991 271.328 130.46C270.726 130.926 269.997 131.159 269.141 131.159ZM269.141 129.909C269.989 129.909 270.648 129.5 271.118 128.682C271.588 127.864 271.822 126.697 271.822 125.182C271.822 124.174 271.714 123.316 271.499 122.608C271.286 121.9 270.98 121.36 270.578 120.989C270.18 120.617 269.701 120.432 269.141 120.432C268.3 120.432 267.643 120.847 267.169 121.676C266.696 122.502 266.459 123.67 266.459 125.182C266.459 126.189 266.565 127.045 266.777 127.75C266.989 128.455 267.294 128.991 267.692 129.358C268.093 129.725 268.576 129.909 269.141 129.909ZM275.368 134.273V122.273H276.663V123.659H276.822C276.921 123.508 277.057 123.314 277.232 123.08C277.41 122.841 277.663 122.629 277.993 122.443C278.326 122.254 278.777 122.159 279.345 122.159C280.08 122.159 280.728 122.343 281.288 122.71C281.849 123.078 282.286 123.598 282.601 124.273C282.915 124.947 283.072 125.742 283.072 126.659C283.072 127.583 282.915 128.384 282.601 129.062C282.286 129.737 281.851 130.259 281.294 130.631C280.737 130.998 280.095 131.182 279.368 131.182C278.807 131.182 278.358 131.089 278.021 130.903C277.684 130.714 277.425 130.5 277.243 130.261C277.061 130.019 276.921 129.818 276.822 129.659H276.709V134.273H275.368ZM276.686 126.636C276.686 127.295 276.783 127.877 276.976 128.381C277.169 128.881 277.451 129.273 277.822 129.557C278.194 129.837 278.648 129.977 279.186 129.977C279.747 129.977 280.214 129.83 280.589 129.534C280.968 129.235 281.252 128.833 281.442 128.33C281.635 127.822 281.732 127.258 281.732 126.636C281.732 126.023 281.637 125.47 281.447 124.977C281.262 124.481 280.98 124.089 280.601 123.801C280.226 123.509 279.754 123.364 279.186 123.364C278.641 123.364 278.182 123.502 277.811 123.778C277.44 124.051 277.16 124.434 276.97 124.926C276.781 125.415 276.686 125.985 276.686 126.636ZM285.118 131V122.273H286.413V123.636H286.527C286.709 123.17 287.002 122.809 287.408 122.551C287.813 122.29 288.3 122.159 288.868 122.159C289.444 122.159 289.923 122.29 290.305 122.551C290.692 122.809 290.993 123.17 291.209 123.636H291.3C291.523 123.186 291.858 122.828 292.305 122.562C292.752 122.294 293.288 122.159 293.913 122.159C294.694 122.159 295.332 122.403 295.828 122.892C296.324 123.377 296.572 124.133 296.572 125.159V131H295.232V125.159C295.232 124.515 295.055 124.055 294.703 123.778C294.351 123.502 293.936 123.364 293.459 123.364C292.845 123.364 292.37 123.549 292.033 123.92C291.696 124.288 291.527 124.754 291.527 125.318V131H290.163V125.023C290.163 124.527 290.002 124.127 289.68 123.824C289.358 123.517 288.944 123.364 288.436 123.364C288.088 123.364 287.762 123.456 287.459 123.642C287.16 123.828 286.917 124.085 286.732 124.415C286.55 124.741 286.459 125.117 286.459 125.545V131H285.118Z" fill="white"/>
<path d="M209.227 154.182C209.227 155.409 209.006 156.47 208.562 157.364C208.119 158.258 207.511 158.947 206.739 159.432C205.966 159.917 205.083 160.159 204.091 160.159C203.098 160.159 202.216 159.917 201.443 159.432C200.67 158.947 200.063 158.258 199.619 157.364C199.176 156.47 198.955 155.409 198.955 154.182C198.955 152.955 199.176 151.894 199.619 151C200.063 150.106 200.67 149.417 201.443 148.932C202.216 148.447 203.098 148.205 204.091 148.205C205.083 148.205 205.966 148.447 206.739 148.932C207.511 149.417 208.119 150.106 208.562 151C209.006 151.894 209.227 152.955 209.227 154.182ZM207.864 154.182C207.864 153.174 207.695 152.324 207.358 151.631C207.025 150.938 206.572 150.413 206 150.057C205.432 149.701 204.795 149.523 204.091 149.523C203.386 149.523 202.748 149.701 202.176 150.057C201.608 150.413 201.155 150.938 200.818 151.631C200.485 152.324 200.318 153.174 200.318 154.182C200.318 155.189 200.485 156.04 200.818 156.733C201.155 157.426 201.608 157.951 202.176 158.307C202.748 158.663 203.386 158.841 204.091 158.841C204.795 158.841 205.432 158.663 206 158.307C206.572 157.951 207.025 157.426 207.358 156.733C207.695 156.04 207.864 155.189 207.864 154.182ZM211.597 160V148.364H218.574V149.614H213.006V153.545H218.051V154.795H213.006V160H211.597ZM220.987 160V148.364H227.964V149.614H222.396V153.545H227.442V154.795H222.396V160H220.987Z" fill="white"/>
<defs>
<filter id="filter0_d_1_16" x="0" y="0" width="328" height="188" filterUnits="userSpaceOnUse" color-interpolation-filters="sRGB">
<feFlood flood-opacity="0" result="BackgroundImageFix"/>
<feColorMatrix in="SourceAlpha" type="matrix" values="0 0 0 0 0 0 0 0 0 0 0 0 0 0 0 0 0 0 127 0" result="hardAlpha"/>
<feOffset dy="4"/>
<feGaussianBlur stdDeviation="2"/>
<feComposite in2="hardAlpha" operator="out"/>
<feColorMatrix type="matrix" values="0 0 0 0 0 0 0 0 0 0 0 0 0 0 0 0 0 0 0.25 0"/>
<feBlend mode="normal" in2="BackgroundImageFix" result="effect1_dropShadow_1_16"/>
<feBlend mode="normal" in="SourceGraphic" in2="effect1_dropShadow_1_16" result="shape"/>
</filter>
</defs>
</svg>
